HIERARCHY
ROOT Hips
{
	OFFSET	0.00	0.00	0.00
	CHANNELS 6 Xposition Yposition Zposition Zrotation Xrotation Yrotation
	JOINT Spine
	{
		OFFSET	 0.00	0.01	 0.00
		CHANNELS 3 Zrotation Xrotation Yrotation
		JOINT Spine1
		{
			OFFSET	 0.00	 2.45913012437421	 0.00
			CHANNELS 3 Zrotation Xrotation Yrotation
            JOINT Neck
            {
                OFFSET	 0.00	 2.48462964506057	 0.00
                CHANNELS 3 Zrotation Xrotation Yrotation
                JOINT Head
                {
                    OFFSET	 0.00	 0.927524780924562	 0.00
                    CHANNELS 3 Zrotation Xrotation Yrotation
                    End Site 
                    {
                        OFFSET	 0.00	 1.14999962169752	 0.00
                    }
                }
            }
			JOINT LeftShoulder
			{
				OFFSET	 0.00	 2.48462964506057	 0.00
				CHANNELS 3 Zrotation Xrotation Yrotation
				JOINT LeftUpArm
				{
					OFFSET	 0.00	 1.24881979654096	 0.00
					CHANNELS 3 Zrotation Xrotation Yrotation
					JOINT LeftForeArm
					{
						OFFSET	 0.00	2.59758046908119	 0.00
						CHANNELS 3 Zrotation Xrotation Yrotation
						JOINT LeftHand
						{
							OFFSET	 0.00	2.45542024364365	 0.00
							CHANNELS 3 Zrotation Xrotation Yrotation
							JOINT LeftHandThumb 
							{
								OFFSET	 0.00	0.00	 0.00
								CHANNELS 3 Zrotation Xrotation Yrotation
								End Site
								{
									OFFSET	 0.00	0.00	1.00000003353624
								}
							}
							JOINT L_Wrist_End 
							{
								OFFSET	 0.00	0.99999967115358	 0.00
								CHANNELS 3 Zrotation Xrotation Yrotation
								End Site 
								{
									OFFSET	 0.00	 0.00	 0.00
								}
							}
						}
					}
				}
			}
			JOINT RightShoulder
			{
				OFFSET	 0.00	 2.48462964506057	 0.00
				CHANNELS 3 Zrotation Xrotation Yrotation
				JOINT RightUpArm
				{
					OFFSET	 0.00	 1.24881979654096	 0.00
					CHANNELS 3 Zrotation Xrotation Yrotation
					JOINT RightForeArm
					{
						OFFSET	 0.00	2.59758046908119	 0.00
						CHANNELS 3 Zrotation Xrotation Yrotation
						JOINT RightHand
						{
							OFFSET	 0.00	2.45542024364365	 0.00
							CHANNELS 3 Zrotation Xrotation Yrotation
							JOINT RightHandThumb 
							{
								OFFSET	 0.00	0.00	 0.00
								CHANNELS 3 Zrotation Xrotation Yrotation
								End Site
								{
									OFFSET	 0.00	0.00	1.00000003353624
								}
							}
							JOINT R_Wrist_End 
							{
								OFFSET	 0.00	0.99999967115358	 0.00
								CHANNELS 3 Zrotation Xrotation Yrotation
								End Site 
								{
									OFFSET	 0.00	 0.00	 0.00
								}
							}
						}
					}
				}
			}
		}
	}
	JOINT LeftUpLeg
	{
		OFFSET	 1.2719394002717	 0.00	 0.00
		CHANNELS 3 Zrotation Xrotation Yrotation
		JOINT LeftLowLeg
		{
			OFFSET	 0.00	-4.3429100912261	 0.00
			CHANNELS 3 Zrotation Xrotation Yrotation
			JOINT LeftFoot
			{
				OFFSET	 0.00	-4.48767017425826	 0.00
				CHANNELS 3 Zrotation Xrotation Yrotation
				JOINT LeftToeBase
                {
                    OFFSET	 0.00	0.00	 1.51507020887566
                    CHANNELS 3 Zrotation Xrotation Yrotation
                    End Site 
                    {
                        OFFSET	 0.00	0.00	 0.75000010571191
                    }
                }
			}
		}
	}
	JOINT RightUpLeg
	{
		OFFSET	 -1.2719393604653	 0.00	 0.00
		CHANNELS 3 Zrotation Xrotation Yrotation
		JOINT RightLowLeg
		{
			OFFSET	 0.00	-4.3429100912261	 0.00
			CHANNELS 3 Zrotation Xrotation Yrotation
			JOINT RightFoot
			{
				OFFSET	 0.00	-4.48767017425826	 0.00
				CHANNELS 3 Zrotation Xrotation Yrotation
				JOINT RightToeBase
                {
                    OFFSET	 0.00	0.00	 1.51507020887566
                    CHANNELS 3 Zrotation Xrotation Yrotation
                    End Site 
                    {
                        OFFSET	 0.00	0.00	 0.749999965609858
                    }
                }   
			}
		}
	}
}
MOTION 
Frames:	13 
Frame Time: 0.02 
  1.3864599609375 3.646940002441406 9.7497802734375 -122.586 82.0414 162.567 4.67225 -9.38342 -3.56671 9.64665 19.7052 -4.61083 -14.2522 47.5253 -1.20251 15.6361 -41.9305 18.4301 -109.7796 -5.14682 3.66272 -48.2456 10.7806 28.7794 0.0 36.4133 0.0 15.6757 -10.0302 3.15095 0.0 0.0 0.0 0.0 0.0 0.0 111.1201 -3.64838 -6.10068 38.4114 13.7172 -14.156 0.0 24.73 0.0 -8.33474 -4.0255 4.60652 0.0 0.0 0.0 0.0 0.0 0.0 10.4629 -17.4554 -2.10503 0.0 16.8886 0.0 6.44074 4.3594 -2.83434 0.0 -36.9069 0.0 9.5578 -8.26633 -1.00583 0.0 4.6103 0.0 5.91369 11.00732 -8.51706 0.0 -26.4011 0.0 
  1.3932099914550782 3.6390200805664064 9.745449829101563 -122.319 81.8038 161.754 4.84394 -9.40764 -3.47565 9.5133 19.5205 -4.54159 -13.7129 47.7341 -1.84913 15.6721 -42.1045 19.0886 -109.5699 -5.24619 3.61765 -48.3895 10.6907 28.6249 0.0 36.4111 0.0 15.7689 -10.0153 3.24057 0.0 0.0 0.0 0.0 0.0 0.0 111.574 -3.76621 -5.93684 38.1683 13.0332 -14.5788 0.0 26.7917 0.0 -10.0245 -4.39077 4.36723 0.0 0.0 0.0 0.0 0.0 0.0 10.4657 -16.837 -1.85617 0.0 14.6624 0.0 6.00318 4.2264004 -3.54978 0.0 -36.8889 0.0 9.72634 -8.35005 -0.839616 0.0 4.50428 0.0 5.82006 11.13142 -8.12361 0.0 -26.5072 0.0 
  1.4008200073242187 3.632539978027344 9.74073974609375 -121.894 81.6306 160.8 4.90704 -9.35 -3.48236 9.64013 19.3171 -4.53287 -14.1647 47.7707 -1.20538 15.8836 -42.209 19.0813 -109.5513 -5.31272 3.58314 -48.4598 10.5421 28.4162 0.0 36.468 0.0 15.8717 -10.085 3.35451 0.0 0.0 0.0 0.0 0.0 0.0 111.5264 -3.76732 -5.92886 38.2589 13.1039 -14.6985 0.0 27.5464 0.0 -10.0908 -4.27287 4.3293 0.0 0.0 0.0 0.0 0.0 0.0 10.4491 -16.2192 -0.693928 0.0 12.7246 0.0 4.86447 4.3845997 -4.54487 0.0 -36.661 0.0 9.89181 -8.41914 -0.225796 0.0 4.49916 0.0 5.95333 11.13002 -8.1015 0.0 -26.563 0.0 
  1.4083200073242188 3.6266598510742187 9.738350219726563 -122.074 81.5067 160.572 4.77557 -9.32958 -3.59144 9.90373 19.173 -4.58174 -15.1569 47.801 0.179377 16.3654 -42.3202 18.8541 -109.6363 -5.26541 3.6067 -48.4573 10.4138 28.1024 0.0 36.4662 0.0 15.8999 -10.0751 3.18859 0.0 0.0 0.0 0.0 0.0 0.0 111.4452 -3.66344 -5.89641 38.3368 13.1127 -14.7436 0.0 28.3288 0.0 -10.2295 -4.12181 4.66748 0.0 0.0 0.0 0.0 0.0 0.0 10.2727 -15.7517 0.198022 0.0 11.3355 0.0 6.78161 5.7238197 -5.43587 0.0 -36.7491 0.0 9.95903 -8.50872 0.295848 0.0 4.5573 0.0 6.01729 11.07741 -8.17276 0.0 -26.5812 0.0 
  1.4143099975585938 3.6211898803710936 9.734929809570312 -121.495 81.3275 159.66 4.70969 -9.27891 -3.72314 10.2029 19.0283 -4.67129 -15.1291 47.8018 0.150448 16.3169 -42.4555 19.0072 -109.6845 -5.27713 3.5636 -48.4664 10.3654 28.0306 0.0 36.4124 0.0 15.9288 -10.08 2.93083 0.0 0.0 0.0 0.0 0.0 0.0 111.434204 -3.6452 -5.70741 38.341 13.1263 -14.9776 0.0 29.2758 0.0 -10.4239 -4.15428 4.59501 0.0 0.0 0.0 0.0 0.0 0.0 10.2789 -15.4266 0.309738 0.0 10.5732 0.0 7.35065 6.96815 -6.17263 0.0 -35.5953 0.0 10.1523 -8.63339 0.559192 0.0 4.6476 0.0 5.91374 11.09008 -8.14277 0.0 -26.6122 0.0 
  1.4217599487304688 3.6161898803710937 9.732009887695312 -120.896 81.1516 158.76 4.64678 -9.24845 -3.85694 10.4974 18.9302 -4.77008 -15.1338 47.8089 0.173549 16.361 -42.625 19.1642 -109.706 -5.21873 3.65096 -48.4648 10.4082 27.9778 0.0 36.3711 0.0 16.0006 -10.1304 2.73793 0.0 0.0 0.0 0.0 0.0 0.0 111.4373 -3.63649 -5.56326 38.3073 13.1765 -15.251 0.0 30.2444 0.0 -10.7144 -4.00016 4.70782 0.0 0.0 0.0 0.0 0.0 0.0 10.3176 -15.3015 -0.49459 0.0 10.283 0.0 7.83135 7.70772 -4.92126 0.0 -35.3498 0.0 10.3233 -8.75781 0.496192 0.0 4.75098 0.0 5.75317 11.14348 -7.81131 0.0 -26.621601 0.0 
  1.431929931640625 3.6129000854492186 9.72906005859375 -120.591 81.0041 158.113 4.63777 -9.22823 -3.90676 10.6462 18.8609 -4.80391 -14.9478 47.7764 -0.00855774 16.4017 -42.6567 19.3692 -109.6512 -5.15174 3.8158 -48.4645 10.6401 28.1139 0.0 36.2379 0.0 16.0266 -10.1976 2.54694 0.0 0.0 0.0 0.0 0.0 0.0 111.378204 -3.62589 -5.63439 38.358 13.3084 -15.3878 0.0 31.221 0.0 -11.099 -3.87257 4.95064 0.0 0.0 0.0 0.0 0.0 0.0 10.3772 -15.0934 -2.57437 0.0 10.0183 0.0 6.20316 7.90529 -2.7442 0.0 -34.67 0.0 10.4309 -8.88463 0.942686 0.0 4.89349 0.0 5.861 11.09336 -7.81089 0.0 -26.6029 0.0 
  1.440760040283203 3.610610046386719 9.729010009765625 -120.741 80.9728 157.934 4.55399 -9.09234 -3.95661 10.6537 18.7159 -4.81503 -14.6842 47.939 -0.300376 16.6443 -42.7291 19.7189 -109.5249 -5.02867 3.87013 -48.4751 10.725 28.3033 0.0 36.0534 0.0 16.041 -10.0573 2.43746 0.0 0.0 0.0 0.0 0.0 0.0 111.4592 -3.58107 -5.66865 38.3585 13.3631 -15.5758 0.0 32.1677 0.0 -11.4333 -3.69607 4.91405 0.0 0.0 0.0 0.0 0.0 0.0 10.4609 -15.1862 -2.70868 0.0 10.4642 0.0 5.64846 7.63516 -2.61496 0.0 -34.5266 0.0 10.4504 -8.97781 1.76302 0.0 5.08001 0.0 6.03588 11.03778 -8.22447 0.0 -26.4501 0.0 
  1.4503999328613282 3.611520080566406 9.73052001953125 -121.145 80.92 157.93 4.54611 -8.94286 -3.93856 10.5325 18.558 -4.778 -14.4233 48.07 -0.600098 16.8222 -42.7676 20.0083 -109.41 -4.96218 3.80096 -48.4351 10.7678 28.5408 0.0 35.9992 0.0 15.9217 -10.1805 2.58057 0.0 0.0 0.0 0.0 0.0 0.0 111.433395 -3.53529 -5.6492 38.5753 13.4366 -15.7899 0.0 32.9781 0.0 -11.6517 -3.53892 5.26731 0.0 0.0 0.0 0.0 0.0 0.0 10.5347 -15.3187 -2.42125 0.0 10.919 0.0 5.10183 7.39496 -2.76454 0.0 -34.4205 0.0 10.4527 -9.18316 2.52915 0.0 5.396 0.0 6.11378 11.00142 -8.56968 0.0 -26.489601 0.0 
  1.462100067138672 3.6112298583984375 9.733099975585937 -121.767 80.8992 158.034 4.54931 -8.81548 -3.87948 10.2972 18.4243 -4.70892 -14.139 48.2374 -0.899748 16.963 -42.7568 20.4099 -109.2405 -4.90482 3.81125 -48.4128 10.758 28.5708 0.0 35.9945 0.0 15.8545 -10.0624 2.71236 0.0 0.0 0.0 0.0 0.0 0.0 111.4895 -3.53386 -5.79191 38.7129 13.6452 -15.984 0.0 33.7856 0.0 -11.9026 -3.50968 5.17196 0.0 0.0 0.0 0.0 0.0 0.0 10.5463 -15.363 -1.95248 0.0 11.3215 0.0 5.25116 7.25184 -2.79794 0.0 -34.5829 0.0 10.4054 -9.37353 2.6211 0.0 5.74799 0.0 5.89885 11.03642 -8.29211 0.0 -26.5364 0.0 
  1.4772900390625 3.6116598510742186 9.736580200195313 -122.378 80.9242 158.065 4.65009 -8.70895 -3.75469 9.92077 18.4157 -4.61905 -13.9276 48.3623 -1.12255 17.227 -42.8624 20.7185 -109.0976 -4.87065 3.96619 -48.2989 10.8777 28.3909 0.0 36.0963 0.0 15.9092 -9.93739 2.78252 0.0 0.0 0.0 0.0 0.0 0.0 111.45 -3.47305 -5.65795 39.0604 13.7073 -16.2566 0.0 34.4326 0.0 -11.7929 -3.33551 4.96964 0.0 0.0 0.0 0.0 0.0 0.0 10.4792 -15.3911 -1.60121 0.0 11.847 0.0 5.65648 7.10414 -2.51722 0.0 -34.771202 0.0 10.3209 -9.49189 2.59925 0.0 6.06777 0.0 5.61119 11.09041 -7.86006 0.0 -26.5397 0.0 
  1.4941099548339845 3.613420104980469 9.739749755859375 -122.821 80.9761 157.869 4.76741 -8.54466 -3.61273 9.5885 18.4167 -4.51413 -13.592 48.5148 -1.56977 17.4228 -43.1043 21.0647 -108.9986 -4.91892 3.99784 -48.2107 10.9699 28.2305 0.0 36.3061 0.0 15.9684 -10.1527 2.74 0.0 0.0 0.0 0.0 0.0 0.0 111.402 -3.4678 -5.43972 39.3585 13.7147 -16.6486 0.0 35.1521 0.0 -11.8984 -3.1915 4.91266 0.0 0.0 0.0 0.0 0.0 0.0 10.404 -15.4405 -1.28166 0.0 12.5137 0.0 5.82917 6.8828897 -2.129 0.0 -34.7108 0.0 10.2495 -9.54943 2.56143 0.0 6.3076 0.0 5.32673 11.21923 -7.40461 0.0 -26.6638 0.0 
  1.5122000122070312 3.6180999755859373 9.741110229492188 -123.093 80.958 157.506 4.93823 -8.40759 -3.46961 9.27005 18.3316 -4.40882 -13.42 48.6101 -1.76052 17.5801 -43.2039 21.3241 -108.8394 -4.92459 4.00371 -48.231 10.9608 28.105 0.0 36.475 0.0 16.1495 -10.1392 2.62133 0.0 0.0 0.0 0.0 0.0 0.0 111.3426 -3.42269 -5.51086 39.5225 13.8244 -16.8564 0.0 35.8841 0.0 -12.0124 -3.22656 5.511 0.0 0.0 0.0 0.0 0.0 0.0 10.3828 -15.5872 -0.894503 0.0 13.2193 0.0 5.80589 6.6424 -1.85499 0.0 -34.5541 0.0 10.2297 -9.70173 2.84941 0.0 6.60634 0.0 5.2186 11.29071 -7.20466 0.0 -26.8776 0.0 
